<svg width="22" height="15" viewBox="0 0 22 15" fill="none" xmlns="http://www.w3.org/2000/svg">
    <path d="M20.7778 1.66667H1.22222C0.488889 1.66667 0 1.33333 0 0.833333C0 0.333333 0.488889 0 1.22222 0H20.7778C21.5111 0 22 0.333333 22 0.833333C22 1.33333 21.5111 1.66667 20.7778 1.66667Z" fill="white"/>
    <path d="M20.7778 15.0002H1.22222C0.488889 15.0002 0 14.6668 0 14.1668C0 13.6668 0.488889 13.3335 1.22222 13.3335H20.7778C21.5111 13.3335 22 13.6668 22 14.1668C22 14.6668 21.5111 15.0002 20.7778 15.0002Z" fill="white"/>
    <path d="M20.7778 8.33317H1.22222C0.488889 8.33317 0 7.99984 0 7.49984C0 6.99984 0.488889 6.6665 1.22222 6.6665H20.7778C21.5111 6.6665 22 6.99984 22 7.49984C22 7.99984 21.5111 8.33317 20.7778 8.33317Z" fill="white"/>
</svg>
