<svg width="12" height="12" viewBox="0 0 12 12" fill="none" xmlns="http://www.w3.org/2000/svg">
    <path d="M9.14211 7.9866C8.70643 7.9866 8.30549 8.13523 7.98715 8.38453L3.97836 6.42932C3.98161 6.38434 3.98333 6.33893 3.98333 6.29311C3.98333 6.27166 3.98284 6.25035 3.98211 6.22904L8.05836 4.24094C8.36438 4.45809 8.73834 4.58574 9.14213 4.58574C10.1776 4.58574 11.017 3.74631 11.017 2.71084C11.017 1.67537 10.1776 0.835938 9.14213 0.835938C8.10666 0.835938 7.26723 1.67537 7.26723 2.71084C7.26723 2.76687 7.26983 2.82229 7.27465 2.87705L3.27688 4.82687C2.95639 4.57115 2.5503 4.4182 2.10842 4.4182C1.07293 4.4182 0.233521 5.25764 0.233521 6.29311C0.233521 7.32857 1.07295 8.16801 2.10842 8.16801C2.52362 8.16801 2.90719 8.03295 3.21788 7.80453L7.26907 9.78043C7.26791 9.80732 7.26721 9.83434 7.26721 9.8615C7.26721 10.897 8.10665 11.7364 9.14211 11.7364C10.1776 11.7364 11.017 10.897 11.017 9.8615C11.017 8.82604 10.1776 7.9866 9.14211 7.9866Z" fill="white"/>
</svg>
