<svg width="10" height="10" viewBox="0 0 10 10" fill="none" xmlns="http://www.w3.org/2000/svg">
    <path d="M5 10C7.76142 10 10 7.76142 10 5C10 2.23858 7.76142 0 5 0C2.23858 0 0 2.23858 0 5C0 7.76142 2.23858 10 5 10Z" fill="#F05016"/>
    <path d="M6.571 5.9933C6.35315 5.9933 6.15269 6.06762 5.99352 6.19227L3.98912 5.21466C3.99074 5.19217 3.9916 5.16946 3.9916 5.14655C3.9916 5.13583 3.99136 5.12518 3.991 5.11452L6.02912 4.12047C6.18213 4.22904 6.36911 4.29287 6.57101 4.29287C7.08875 4.29287 7.50846 3.87315 7.50846 3.35542C7.50846 2.83769 7.08874 2.41797 6.57101 2.41797C6.05327 2.41797 5.63355 2.83769 5.63355 3.35542C5.63355 3.38344 5.63485 3.41114 5.63727 3.43853L3.63838 4.41344C3.47813 4.28558 3.27509 4.2091 3.05415 4.2091C2.53641 4.2091 2.1167 4.62882 2.1167 5.14655C2.1167 5.66429 2.53642 6.084 3.05415 6.084C3.26175 6.084 3.45354 6.01647 3.60888 5.90227L5.63447 6.89021C5.6339 6.90366 5.63354 6.91717 5.63354 6.93075C5.63354 7.4485 6.05326 7.8682 6.571 7.8682C7.08873 7.8682 7.50845 7.44849 7.50845 6.93075C7.50845 6.41302 7.08874 5.9933 6.571 5.9933Z" fill="white"/>
</svg>
